<svg xmlns="http://www.w3.org/2000/svg" viewBox="0 0 1979 398" preserveAspectRatio="xMidYMid" width="1979" height="398" xmlns:xlink="http://www.w3.org/1999/xlink" style="shape-rendering:auto;display:block;background-position-x:0%;background-position-y:0%;background-size:auto;background-origin:padding-box;background-clip:border-box;background:scroll rgba(0, 0, 0, 0) none  repeat;width:1979px;height:398px;;animation:none"><g><linearGradient y2="0" y1="0" x2="1" x1="0" id="lg-ftpfaav2aur"><stop offset="0" stop-color="#fad4d4"></stop>

  
<stop offset="1" stop-color="#fad4d4"></stop></linearGradient>
<path opacity="0.4" fill="url(#lg-ftpfaav2aur)" d="M 0 0 L 0 232.04 Q 247.38 156.43 494.75 132.16 T 989.5 143.13 T 1484.25 159.72 T 1979 158.83 L 1979 0 Z" style="fill:url('#lg-ftpfaav2aur');opacity:0.4;;animation:none"></path>
<path opacity="0.4" fill="url(#lg-ftpfaav2aur)" d="M 0 0 L 0 193.805 Q 247.38 180.61 494.75 134.859 T 989.5 227.443 T 1484.25 221.633 T 1979 164.974 L 1979 0 Z" style="fill:url('#lg-ftpfaav2aur');opacity:0.4;;animation:none"></path>
<path opacity="0.4" fill="url(#lg-ftpfaav2aur)" d="M 0 0 L 0 209.345 Q 247.38 214.155 494.75 184.72 T 989.5 165.72 T 1484.25 191.61 T 1979 208.335 L 1979 0 Z" style="fill:url('#lg-ftpfaav2aur');opacity:0.4;;animation:none"></path>
<path opacity="0.4" fill="url(#lg-ftpfaav2aur)" d="M 0 0 L 0 119.629 Q 247.38 210.703 494.75 181.85 T 989.5 191.281 T 1484.25 234.751 T 1979 173.01 L 1979 0 Z" style="fill:url('#lg-ftpfaav2aur');opacity:0.4;;animation:none"></path>
<g></g></g><!-- [ldio] generated by https://loading.io --></svg>